<?xml version="1.0" encoding="UTF-8"?>
<svg width="24px" height="24px" viewBox="0 0 24 24" version="1.1" xmlns="http://www.w3.org/2000/svg" xmlns:xlink="http://www.w3.org/1999/xlink">
    <title>_loading</title>
    <g id="_loading" stroke="none" stroke-width="1" fill="none" fill-rule="evenodd">
        <path d="M12,1 C11.4477,1 11,1.447715 11,2 L11,7 C11,7.55228 11.4477,8 12,8 C12.5523,8 13,7.55228 13,7 L13,2 C13,1.447715 12.5523,1 12,1 Z" id="Path" fill="#1F2123" fill-rule="nonzero"></path>
        <path d="M12,16 C11.4477,16 11,16.4477 11,17 L11,22 C11,22.5523 11.4477,23 12,23 C12.5523,23 13,22.5523 13,22 L13,17 C13,16.4477 12.5523,16 12,16 Z" id="Path" fill="#1F2123" fill-rule="nonzero"></path>
        <path d="M22,11 C22.5523,11 23,11.4477 23,12 C23,12.5523 22.5523,13 22,13 L17,13 C16.4477,13 16,12.5523 16,12 C16,11.4477 16.4477,11 17,11 L22,11 Z" id="Path" fill="#1F2123" fill-rule="nonzero"></path>
        <path d="M8,12 C8,11.4477 7.55228,11 7,11 L2,11 C1.447715,11 1,11.4477 1,12 C1,12.5523 1.447715,13 2,13 L7,13 C7.55228,13 8,12.5523 8,12 Z" id="Path" fill="#1F2123" fill-rule="nonzero"></path>
        <path d="M19.7782,4.22183 C19.3877,3.8313 18.7545,3.8313 18.364,4.22183 L14.8284,7.75736 C14.4379,8.14788 14.4379,8.78105 14.8284,9.17157 C15.219,9.5621 15.8521,9.5621 16.2426,9.17157 L19.7782,5.63604 C20.1687,5.24551 20.1687,4.61235 19.7782,4.22183 Z" id="Path" fill="#1F2123" fill-rule="nonzero"></path>
        <path d="M9.17157,14.8284 C8.78105,14.4379 8.14788,14.4379 7.75736,14.8284 L4.22183,18.364 C3.8313,18.7545 3.8313,19.3877 4.22183,19.7782 C4.61235,20.1687 5.24552,20.1687 5.63604,19.7782 L9.17157,16.2426 C9.5621,15.8521 9.5621,15.219 9.17157,14.8284 Z" id="Path" fill="#1F2123" fill-rule="nonzero"></path>
        <path d="M19.7782,18.364 C20.1687,18.7545 20.1687,19.3877 19.7782,19.7782 C19.3877,20.1687 18.7545,20.1687 18.364,19.7782 L14.8284,16.2426 C14.4379,15.8521 14.4379,15.219 14.8284,14.8284 C15.219,14.4379 15.8521,14.4379 16.2426,14.8284 L19.7782,18.364 Z" id="Path" fill="#1F2123" fill-rule="nonzero"></path>
        <path d="M9.17157,9.17157 C9.5621,8.78105 9.5621,8.14788 9.17157,7.75736 L5.63604,4.22183 C5.24551,3.8313 4.61235,3.8313 4.22183,4.22183 C3.8313,4.61235 3.8313,5.24551 4.22183,5.63604 L7.75736,9.17157 C8.14788,9.5621 8.78105,9.5621 9.17157,9.17157 Z" id="Path" fill="#1F2123" fill-rule="nonzero"></path>
    </g>
</svg>